<svg xmlns="http://www.w3.org/2000/svg" xml:space="preserve" viewBox="0 0 114.401 114.401"><path fill="#ffc847" d="M57.2 8.842a1.2 1.2 0 0 1-1.2-1.2V1.201a1.2 1.2 0 0 1 2.4-.001v6.441a1.2 1.2 0 0 1-1.2 1.201zM57.2 114.401a1.2 1.2 0 0 1-1.2-1.2v-6.44a1.2 1.2 0 1 1 2.4 0v6.44a1.2 1.2 0 0 1-1.2 1.2zM22.157 23.358a1.2 1.2 0 0 1-.849-.351l-4.555-4.555a1.2 1.2 0 1 1 1.697-1.697l4.555 4.555a1.2 1.2 0 0 1-.848 2.048zM96.799 97.999c-.307 0-.614-.117-.849-.352l-4.555-4.555a1.2 1.2 0 1 1 1.697-1.697l4.555 4.555a1.2 1.2 0 0 1-.848 2.049zM7.642 58.401H1.2A1.2 1.2 0 1 1 1.2 56h6.441a1.2 1.2 0 0 1 .001 2.401zM113.201 58.401h-6.441a1.2 1.2 0 1 1 0-2.4h6.441a1.2 1.2 0 1 1 0 2.4zM17.602 97.999a1.2 1.2 0 0 1-.849-2.049l4.555-4.555a1.2 1.2 0 1 1 1.697 1.697l-4.555 4.555a1.19 1.19 0 0 1-.848.352zM92.244 23.358a1.2 1.2 0 0 1-.849-2.048l4.555-4.555a1.2 1.2 0 1 1 1.697 1.697l-4.555 4.555a1.196 1.196 0 0 1-.848.351zM57.201 36.046l5.683 11.312 12.637-.735-6.954 10.578 6.954 10.578-12.637-.735-5.683 11.313-5.683-11.313-12.638.735 6.955-10.578-6.955-10.578 12.638.735zM54.079 96.884c-.041 0-.082-.002-.124-.005a47.085 47.085 0 0 1-1.001-.093 1.5 1.5 0 0 1-1.339-1.646 1.509 1.509 0 0 1 1.645-1.339c.312.032.625.062.939.087a1.5 1.5 0 0 1-.12 2.996zm11.61-.817a1.501 1.501 0 0 1-.328-2.964c.304-.067.605-.141.906-.217.804-.21 1.62.28 1.823 1.083a1.498 1.498 0 0 1-1.083 1.823c-.328.084-.657.163-.988.238a1.497 1.497 0 0 1-.33.037zm-23.837-2.256c-.201 0-.405-.04-.6-.126-.31-.136-.616-.274-.921-.416a1.502 1.502 0 0 1-.728-1.993 1.504 1.504 0 0 1 1.993-.728c.283.132.57.263.858.389a1.5 1.5 0 0 1-.602 2.874zm35.502-2.524a1.499 1.499 0 0 1-.794-2.772c.266-.166.529-.333.79-.505a1.5 1.5 0 1 1 1.646 2.508c-.28.184-.564.364-.849.542a1.501 1.501 0 0 1-.793.227zm-46.059-4.366c-.363 0-.726-.131-1.015-.396a37.21 37.21 0 0 1-.736-.694 1.498 1.498 0 1 1 2.084-2.156c.225.216.452.431.682.642a1.5 1.5 0 0 1-1.015 2.604zm55.537-3.938a1.5 1.5 0 0 1-1.158-2.452c.197-.24.392-.483.582-.729a1.5 1.5 0 0 1 2.371 1.837c-.208.269-.42.533-.635.795a1.495 1.495 0 0 1-1.16.549zm-63.298-5.991a1.497 1.497 0 0 1-1.319-.784c-.16-.296-.317-.593-.471-.894a1.5 1.5 0 1 1 2.672-1.364c.142.277.287.553.436.825a1.5 1.5 0 0 1-1.318 2.217zm69.582-4.937a1.501 1.501 0 0 1-1.405-2.026c.109-.292.214-.586.315-.881a1.5 1.5 0 0 1 2.838.97c-.109.322-.224.642-.343.961a1.499 1.499 0 0 1-1.405.976zm-73.697-6.974a1.502 1.502 0 0 1-1.478-1.251 41.568 41.568 0 0 1-.155-1 1.502 1.502 0 0 1 1.273-1.697 1.502 1.502 0 0 1 1.697 1.274c.044.31.092.619.144.926a1.5 1.5 0 0 1-1.481 1.748zm76.079-5.407h-.037a1.502 1.502 0 0 1-1.464-1.536c.008-.313.012-.624.012-.938v-.159a1.5 1.5 0 0 1 3 0v.159c0 .337-.004.674-.012 1.01a1.5 1.5 0 0 1-1.499 1.464zm-76.101-7.198a1.501 1.501 0 0 1-1.482-1.743c.055-.332.113-.662.175-.992a1.5 1.5 0 0 1 2.949.553 38.84 38.84 0 0 0-.163.926 1.5 1.5 0 0 1-1.479 1.256zm74.304-5.436a1.5 1.5 0 0 1-1.43-1.045 34.116 34.116 0 0 0-.295-.887 1.5 1.5 0 1 1 2.834-.984c.11.319.218.639.32.961a1.501 1.501 0 0 1-1.429 1.955zm-70.242-6.495a1.498 1.498 0 0 1-1.319-2.212c.161-.298.325-.594.494-.888a1.5 1.5 0 0 1 2.602 1.494c-.155.271-.308.543-.455.817a1.5 1.5 0 0 1-1.322.789zm64.478-4.713c-.458 0-.91-.209-1.204-.604a37.189 37.189 0 0 0-.567-.741 1.5 1.5 0 0 1 2.359-1.853c.208.266.413.533.614.804a1.5 1.5 0 0 1-1.202 2.394zm-56.752-5.25a1.5 1.5 0 0 1-1.02-2.6c.249-.23.5-.457.755-.68a1.5 1.5 0 1 1 1.976 2.256c-.233.205-.465.414-.692.625a1.491 1.491 0 0 1-1.019.399zm47.667-3.488c-.292 0-.587-.085-.846-.262a39.237 39.237 0 0 0-.781-.521 1.5 1.5 0 0 1 1.633-2.517c.282.184.563.371.842.562a1.5 1.5 0 0 1-.848 2.738zm-37.139-3.44a1.5 1.5 0 0 1-.607-2.872c.307-.136.614-.267.924-.396a1.501 1.501 0 0 1 1.15 2.772c-.288.119-.576.242-.861.368a1.503 1.503 0 0 1-.606.128zm25.712-1.882a1.48 1.48 0 0 1-.404-.056 33.795 33.795 0 0 0-.898-.235 1.5 1.5 0 1 1 .72-2.912c.33.082.658.167.984.259a1.499 1.499 0 0 1-.402 2.944zm-13.509-1.239a1.5 1.5 0 0 1-.125-2.995c.335-.028.671-.052 1.009-.072a1.5 1.5 0 1 1 .18 2.994c-.313.018-.625.042-.935.067a1.392 1.392 0 0 1-.129.006z"/></svg>
